<?xml version="1.0" standalone="no"?>
<!DOCTYPE svg PUBLIC "-//W3C//DTD SVG 20010904//EN"
 "http://www.w3.org/TR/2001/REC-SVG-20010904/DTD/svg10.dtd">
<svg version="1.0" xmlns="http://www.w3.org/2000/svg"
 width="400.000000pt" height="400.000000pt" viewBox="0 0 400.000000 400.000000"
 preserveAspectRatio="xMidYMid meet">
<metadata>
Created by potrace 1.14, written by Peter Selinger 2001-2017
</metadata>
<g transform="translate(0.000000,400.000000) scale(0.100000,-0.100000)"
fill="#000000" stroke="none">
<path d="M1579 3981 c-39 -39 -85 -75 -91 -73 -5 1 -7 -1 -6 -5 4 -11 -64 -79
-75 -75 -5 1 -6 -2 -2 -8 3 -5 -1 -13 -9 -16 -9 -3 -14 -10 -11 -15 3 -4 -4
-13 -15 -19 -11 -6 -18 -15 -15 -21 4 -5 1 -9 -4 -9 -6 0 -11 -7 -11 -17 0 -9
-3 -13 -7 -10 -9 9 -45 -52 -38 -64 4 -5 0 -9 -8 -9 -7 0 -19 -16 -27 -35 -8
-19 -18 -35 -22 -35 -5 0 -6 -4 -3 -10 3 -5 2 -10 -3 -10 -6 0 -13 -11 -16
-25 -4 -14 -11 -25 -16 -25 -5 0 -7 -9 -5 -19 2 -11 -3 -22 -12 -25 -8 -4 -13
-13 -10 -20 3 -8 -1 -17 -10 -20 -9 -4 -13 -9 -10 -13 4 -3 1 -13 -6 -21 -9
-13 -9 -14 0 -8 9 5 11 2 7 -8 -3 -9 -10 -16 -14 -16 -7 0 -24 -57 -21 -72 0
-5 -4 -8 -9 -8 -5 0 -9 -3 -9 -7 1 -5 0 -10 -1 -13 -1 -3 -3 -13 -5 -23 -2
-10 -7 -26 -11 -35 -9 -22 -11 -29 -13 -48 0 -8 -4 -13 -8 -11 -5 3 -8 -9 -8
-26 1 -18 -3 -35 -7 -38 -5 -3 -10 -20 -11 -37 -1 -18 -6 -32 -11 -32 -5 0 -6
-3 -3 -6 3 -4 2 -16 -4 -27 -9 -15 -8 -18 2 -12 8 6 10 4 3 -6 -9 -15 -14 -32
-17 -64 -2 -11 -6 -26 -10 -32 -5 -8 -3 -13 5 -13 10 0 10 -2 -1 -9 -9 -6 -10
-11 -2 -15 15 -10 33 3 25 16 -4 6 1 17 11 25 11 7 16 13 12 13 -4 0 -2 10 5
23 7 12 11 25 10 30 -1 4 3 7 8 7 6 0 10 9 10 20 0 11 4 20 10 20 5 0 9 3 9 8
-1 4 0 10 1 15 1 4 3 10 4 15 1 4 12 28 24 54 12 26 22 52 22 58 0 6 6 13 14
16 8 3 12 12 9 20 -3 7 2 16 10 20 9 3 14 15 12 30 -2 19 1 22 11 14 10 -9 11
-6 7 11 -5 17 -3 20 8 14 8 -5 11 -5 7 0 -7 8 29 84 45 96 5 3 8 10 8 15 -1 5
6 17 15 27 8 11 13 21 11 24 -3 2 2 13 11 22 31 33 52 61 45 61 -3 0 4 9 16
19 12 11 22 22 22 25 -3 20 0 26 11 24 7 -2 12 4 13 12 1 8 6 14 13 12 7 -1
11 1 10 5 -3 15 14 43 26 43 12 0 13 -60 1 -79 -3 -6 -2 -11 4 -11 7 0 7 -8 1
-24 -5 -15 -5 -27 2 -34 6 -6 6 -12 -1 -16 -5 -4 -7 -14 -4 -23 5 -11 3 -14
-6 -8 -10 6 -11 3 -3 -12 7 -11 7 -25 1 -35 -5 -9 -5 -19 0 -22 4 -3 7 -17 6
-31 -2 -14 2 -25 8 -25 8 0 7 -3 -1 -9 -17 -11 -17 -21 0 -32 10 -7 10 -9 0
-9 -8 0 -10 -5 -5 -12 4 -7 8 -29 9 -49 1 -20 5 -43 10 -50 4 -7 9 -27 11 -44
5 -52 6 -55 15 -55 5 0 7 -4 3 -9 -3 -5 4 -26 16 -45 11 -20 17 -36 13 -36 -4
0 0 -6 11 -13 13 -10 15 -16 6 -21 -7 -5 -19 0 -27 10 -9 11 -13 14 -10 7 4
-7 -1 -9 -14 -6 -11 3 -17 10 -13 16 4 6 0 8 -10 4 -9 -3 -19 -2 -23 4 -4 7
-10 6 -18 0 -7 -6 -15 -9 -18 -6 -9 9 -68 12 -74 4 -2 -4 -11 -6 -19 -2 -8 3
-15 0 -15 -5 0 -6 -9 -9 -19 -7 -11 2 -22 -3 -25 -10 -3 -8 -14 -12 -26 -10
-11 2 -18 0 -16 -4 3 -5 -10 -16 -29 -27 -18 -10 -31 -22 -28 -28 4 -5 -1 -7
-10 -3 -10 4 -18 0 -22 -12 -3 -11 -16 -22 -28 -25 -18 -5 -20 -8 -7 -16 13
-9 13 -10 0 -10 -17 0 -50 -34 -50 -50 0 -6 -7 -10 -16 -10 -8 0 -13 -4 -9
-10 3 -5 -3 -18 -13 -28 -10 -10 -16 -24 -14 -30 2 -7 -1 -12 -8 -12 -6 0 -8
-4 -5 -10 3 -5 0 -10 -7 -10 -10 0 -10 -2 1 -9 9 -6 10 -11 2 -15 -6 -4 -9
-12 -6 -17 4 -5 1 -9 -4 -9 -6 0 -9 -10 -7 -22 2 -13 -1 -31 -6 -40 -6 -12 -5
-18 3 -18 8 0 8 -4 -1 -15 -8 -9 -8 -15 -2 -15 7 0 8 -10 2 -30 -5 -16 -5 -30
-1 -30 4 0 7 -12 6 -27 0 -23 -4 -28 -25 -26 -63 4 -90 8 -90 14 0 3 -14 5
-30 4 -17 -1 -33 2 -36 7 -3 4 -10 6 -15 3 -5 -4 -9 -2 -9 3 0 8 -6 10 -50 14
-11 1 -20 6 -20 10 0 4 -9 8 -20 8 -11 0 -20 5 -20 10 0 6 -9 10 -20 10 -11 0
-20 5 -20 11 0 5 -5 7 -10 4 -6 -3 -10 -1 -10 4 0 6 -3 10 -7 10 -20 -3 -34 2
-28 11 3 6 -1 10 -9 10 -19 0 -116 60 -116 73 0 5 -7 6 -16 3 -8 -3 -12 -2 -9
4 3 6 2 10 -3 10 -6 0 -42 32 -82 71 -54 53 -75 68 -81 57 -6 -10 -9 -10 -9 0
0 19 -116 16 -124 -4 -3 -8 -10 -13 -14 -10 -5 3 -15 -5 -22 -19 -13 -24 -8
-133 7 -157 3 -7 8 -25 10 -40 4 -41 7 -52 15 -59 5 -3 9 -17 10 -32 1 -15 6
-27 10 -27 4 0 8 -6 8 -14 0 -7 7 -26 14 -42 8 -15 13 -31 10 -36 -3 -4 2 -8
10 -8 8 0 13 -6 10 -13 -2 -7 3 -22 13 -32 10 -11 20 -29 21 -40 2 -11 8 -21
13 -23 5 -2 9 -10 9 -18 0 -8 5 -14 10 -14 6 0 10 -7 10 -15 0 -8 5 -15 10
-15 6 0 9 -3 9 -7 -3 -20 2 -34 11 -28 6 3 10 -1 10 -9 0 -9 5 -16 11 -16 5 0
7 -4 4 -10 -3 -5 1 -10 9 -10 10 0 13 -6 10 -15 -4 -10 0 -15 11 -15 9 0 13
-4 10 -10 -3 -5 -1 -10 6 -10 7 0 9 -3 6 -6 -3 -4 8 -20 24 -35 17 -16 28 -29
24 -29 -5 0 8 -16 28 -35 20 -19 34 -35 31 -35 -3 0 6 -11 20 -23 14 -13 23
-27 19 -30 -3 -4 1 -7 10 -7 9 0 17 -3 17 -7 0 -5 19 -28 42 -53 22 -25 35
-36 27 -25 -13 20 -13 20 8 1 13 -10 20 -23 17 -27 -3 -5 0 -9 6 -9 7 0 25
-13 40 -30 15 -16 32 -30 37 -30 4 0 14 -9 21 -20 7 -11 19 -20 27 -20 8 0 15
-4 15 -10 0 -5 5 -10 10 -10 6 0 10 7 10 15 0 8 -4 15 -10 15 -5 0 -10 7 -10
16 0 8 -5 12 -10 9 -6 -3 -10 2 -10 12 0 10 -9 26 -20 36 -12 10 -18 21 -15
26 2 5 -1 11 -8 14 -7 3 -26 24 -42 48 -17 24 -36 50 -42 57 -7 7 -13 20 -13
28 0 8 -4 13 -9 9 -5 -3 -12 3 -16 14 -3 10 -14 29 -25 41 -11 12 -17 27 -13
33 3 6 1 7 -5 3 -7 -4 -12 -2 -12 4 0 6 -7 18 -16 27 -8 9 -13 22 -10 30 3 8
2 11 -3 8 -5 -3 -12 4 -16 15 -3 11 -11 20 -17 20 -6 0 -9 3 -5 6 3 4 -1 13
-9 21 -8 9 -13 22 -10 30 3 8 2 11 -3 8 -5 -3 -12 4 -16 15 -3 11 -11 20 -16
20 -6 0 -7 4 -4 10 3 5 -1 20 -10 33 -8 13 -12 27 -8 32 5 4 3 5 -3 2 -11 -6
-42 69 -36 86 1 5 -2 6 -8 2 -9 -6 -14 10 -13 42 1 7 -3 10 -8 7 -5 -3 -9 6
-9 20 0 14 5 26 10 26 6 0 10 -7 10 -16 0 -8 4 -13 9 -10 4 3 17 -2 27 -10 10
-9 13 -12 5 -8 -9 5 -12 3 -7 -5 4 -6 11 -9 16 -6 5 3 16 -2 24 -11 9 -8 16
-12 16 -7 0 4 5 0 11 -9 5 -10 17 -18 24 -18 8 0 15 -3 15 -7 0 -5 24 -19 53
-33 28 -14 55 -29 58 -34 4 -5 12 -5 18 -2 6 4 11 3 11 -3 0 -6 11 -13 25 -17
14 -3 25 -10 25 -16 0 -5 4 -7 8 -4 5 3 20 -1 33 -8 14 -7 36 -16 50 -19 13
-3 35 -8 49 -12 14 -4 35 -7 48 -8 12 -1 22 -4 22 -8 0 -4 23 -6 50 -5 37 1
47 -1 37 -9 -8 -5 -12 -16 -9 -24 3 -9 0 -11 -7 -7 -7 5 -27 -8 -48 -31 -20
-21 -35 -38 -34 -38 5 0 -13 -40 -21 -46 -4 -3 -9 -18 -10 -35 -1 -16 -5 -34
-9 -39 -9 -12 -6 -111 4 -121 4 -4 2 -13 -4 -20 -7 -8 -7 -14 1 -19 5 -3 10
-17 10 -30 0 -13 5 -27 10 -30 8 -5 7 -12 -2 -23 -7 -9 -8 -13 -3 -10 6 4 15
-5 22 -18 6 -13 7 -21 1 -18 -12 8 13 -38 27 -48 7 -5 7 -8 0 -8 -5 0 -1 -7 9
-15 11 -8 16 -15 11 -15 -5 0 6 -15 25 -33 19 -18 36 -37 38 -42 1 -6 8 -10
15 -10 6 -1 10 -7 9 -15 -2 -8 0 -12 3 -8 4 4 27 -6 51 -22 23 -17 50 -30 58
-30 9 0 16 -4 16 -10 0 -5 6 -10 14 -10 22 0 28 -16 13 -32 -7 -7 -25 -30 -38
-50 -14 -21 -29 -35 -32 -31 -4 3 -7 1 -7 -6 0 -13 -65 -81 -78 -81 -4 0 -14
-9 -22 -20 -8 -11 -19 -20 -25 -20 -6 0 -17 -9 -24 -19 -8 -11 -21 -17 -29
-13 -9 3 -13 1 -9 -5 6 -9 -34 -35 -58 -38 -5 0 -9 -6 -8 -12 1 -6 -3 -10 -10
-10 -7 1 -28 -6 -47 -15 -40 -19 -69 -30 -89 -34 -8 -1 -18 -9 -22 -16 -5 -7
-9 -9 -9 -5 0 4 -9 3 -19 -3 -14 -7 -21 -6 -24 3 -4 7 -6 6 -6 -5 -1 -10 -8
-15 -18 -13 -10 1 -24 -2 -31 -8 -6 -5 -12 -6 -12 -2 0 5 -9 0 -20 -10 -11
-10 -20 -14 -20 -10 0 5 -15 -15 -33 -44 -36 -56 -40 -94 -16 -128 16 -24 88
-65 101 -57 4 3 8 0 8 -6 0 -7 7 -10 15 -6 8 3 15 0 15 -7 0 -8 4 -7 10 3 8
12 10 12 15 -2 4 -10 15 -15 26 -13 10 2 19 0 19 -5 0 -4 11 -7 25 -5 14 1 25
-1 25 -5 0 -4 13 -6 30 -5 17 1 27 -2 23 -8 -4 -6 4 -8 20 -5 15 3 28 0 31 -6
3 -7 5 -6 5 2 1 8 6 10 13 6 7 -4 37 -8 68 -9 31 -1 61 -4 68 -9 7 -4 12 -3
12 2 0 5 36 9 80 8 61 -1 79 2 75 12 -3 9 0 10 15 2 25 -13 33 -13 24 3 -5 8
-2 8 9 -2 9 -7 17 -9 17 -5 0 5 21 9 48 9 26 0 49 3 52 7 3 3 25 9 50 12 45 5
85 13 85 16 0 1 9 3 20 5 11 2 31 6 45 10 14 3 34 7 45 8 11 1 23 6 26 10 3 5
22 9 41 10 20 1 34 5 31 10 -4 6 28 12 50 8 4 0 7 4 7 10 0 6 6 9 14 6 8 -3
16 -1 18 4 2 6 12 11 23 13 12 2 19 10 19 20 -2 12 1 14 11 6 9 -8 14 -7 18 3
5 13 -18 17 -38 6 -6 -3 -33 -5 -62 -5 -29 1 -49 -3 -45 -8 3 -5 -3 -6 -13 -2
-11 4 -22 2 -27 -6 -6 -11 -8 -10 -8 0 0 7 -5 10 -10 7 -6 -4 -22 -8 -36 -11
-19 -3 -24 -1 -18 8 6 10 4 10 -9 0 -9 -8 -22 -12 -29 -9 -7 2 -22 -3 -32 -12
-11 -9 -16 -11 -13 -4 4 6 3 14 -3 18 -5 3 -10 2 -10 -4 0 -5 -9 -8 -20 -6
-11 2 -20 -2 -20 -8 0 -8 -3 -8 -8 -2 -8 12 -37 13 -48 2 -10 -9 -26 -9 -20 1
2 4 -4 8 -15 8 -10 0 -19 -3 -19 -6 0 -6 -176 -7 -195 -1 -5 2 -12 2 -15 1
-15 -6 -50 -6 -50 1 0 9 -26 6 -36 -4 -4 -4 -12 -7 -18 -7 -6 0 -4 5 4 10 11
7 4 10 -27 10 -24 0 -46 0 -49 -1 -4 0 -11 5 -15 13 -6 9 -9 9 -9 1 0 -12 -37
-10 -49 3 -3 4 3 4 13 0 16 -5 17 -4 6 9 -13 15 -5 20 28 16 6 -1 12 3 12 9 0
6 4 9 9 6 5 -3 12 1 15 10 3 8 10 13 15 9 5 -3 12 -1 16 5 4 6 11 8 16 5 5 -4
9 -1 9 4 0 6 6 11 13 11 7 0 22 8 33 18 11 10 25 17 32 14 6 -2 12 1 12 8 0 6
4 9 9 5 6 -3 13 0 18 7 8 13 68 58 77 58 5 0 45 33 80 65 11 11 24 19 29 17 7
-2 11 13 8 31 0 4 3 7 9 7 11 0 65 51 68 65 1 6 9 18 17 28 8 9 15 21 15 25 0
5 7 9 15 9 11 0 12 -4 4 -14 -9 -10 -8 -13 2 -13 11 0 11 -2 -1 -10 -12 -7
-11 -12 5 -31 12 -13 14 -19 5 -14 -13 8 -13 7 -1 -8 7 -9 10 -17 6 -17 -4 0
-2 -6 4 -13 6 -8 8 -17 4 -20 -3 -4 -1 -7 5 -7 7 0 12 -8 12 -18 0 -19 33 -52
53 -52 8 0 7 -4 -3 -10 -13 -8 -12 -10 3 -10 9 0 17 -5 17 -11 0 -5 4 -8 9 -4
6 3 13 0 18 -7 12 -19 71 -50 82 -44 5 3 12 -1 15 -10 3 -9 12 -14 18 -12 7 3
24 -1 37 -8 14 -7 28 -11 33 -8 4 3 8 0 8 -7 0 -9 3 -9 14 0 11 9 15 9 18 -1
5 -15 155 -15 171 1 5 5 16 7 23 4 8 -3 14 0 14 7 0 6 4 9 9 5 13 -7 55 12
123 57 69 46 82 48 77 12 0 -4 4 -10 9 -13 6 -3 12 -15 14 -26 1 -11 9 -26 16
-33 7 -8 10 -18 7 -23 -4 -5 -1 -9 5 -9 8 0 7 -6 -1 -21 -8 -15 -8 -19 0 -15
10 7 16 -19 12 -53 -2 -7 3 -10 9 -6 14 9 9 -27 -5 -37 -6 -5 -4 -8 5 -8 12 0
15 -8 12 -35 -3 -25 0 -35 9 -35 11 0 11 -2 0 -9 -13 -8 -13 -12 0 -27 9 -11
9 -15 2 -10 -9 5 -13 -1 -13 -19 0 -17 4 -24 12 -19 7 4 8 3 4 -5 -14 -22 -17
-63 -6 -76 8 -9 8 -15 0 -20 -5 -3 -10 -20 -10 -36 0 -17 -5 -40 -11 -51 -9
-16 -8 -19 3 -12 10 6 11 5 1 -7 -12 -15 -13 -18 -13 -50 0 -11 -4 -17 -10
-14 -5 3 -7 0 -4 -9 3 -8 1 -30 -4 -50 -7 -22 -7 -38 -1 -42 5 -3 7 -9 4 -14
-2 -4 4 -19 15 -33 11 -14 20 -32 20 -39 0 -19 46 -42 85 -43 19 -1 37 6 48
19 10 12 15 14 11 6 -7 -14 17 7 120 105 23 22 44 45 45 50 2 6 7 9 12 8 5 -2
9 4 9 13 0 8 5 12 10 9 6 -4 9 -3 8 2 -3 8 52 86 65 91 4 2 5 8 1 13 -3 5 0 9
6 9 7 0 9 7 6 16 -4 11 -2 15 8 11 10 -4 13 -1 9 9 -3 7 -1 14 5 14 9 0 20 26
18 40 -2 12 30 38 39 32 6 -3 4 2 -4 11 -9 11 -10 17 -2 17 6 0 11 7 11 15 0
8 5 15 11 15 5 0 8 4 4 9 -3 5 1 16 9 24 8 8 12 17 9 21 -4 3 -1 6 6 6 7 0 9
5 6 11 -4 5 1 20 12 31 10 12 12 18 5 14 -7 -4 -4 8 8 28 11 20 16 36 12 36
-4 0 0 5 8 10 13 8 13 10 1 10 -11 0 -9 4 5 15 10 8 15 15 11 15 -4 0 -2 10 5
23 13 23 14 28 17 67 1 16 4 21 9 13 5 -8 8 2 9 23 1 20 5 39 11 43 5 3 8 16
7 28 -1 12 4 24 10 27 6 2 11 20 10 40 -1 20 2 36 6 36 5 0 9 5 9 11 0 5 -6 7
-12 4 -7 -4 -5 0 4 8 13 10 15 16 6 25 -7 7 -8 12 -3 12 6 0 11 18 12 39 2 29
-2 41 -14 46 -10 3 -14 3 -10 -1 4 -4 -1 -16 -10 -27 -10 -11 -12 -17 -5 -13
6 4 12 2 12 -3 0 -6 -4 -11 -9 -11 -9 0 -27 -40 -22 -49 2 -2 -2 -7 -9 -11 -6
-4 -12 -17 -13 -28 -1 -12 -5 -22 -9 -22 -4 0 -8 -7 -8 -15 0 -8 -5 -15 -11
-15 -6 0 -9 -7 -6 -15 4 -8 2 -17 -4 -21 -6 -3 -8 -12 -5 -20 3 -7 -3 -18 -12
-23 -10 -5 -18 -19 -19 -32 -1 -12 -6 -25 -11 -28 -5 -3 -15 -21 -23 -39 -8
-17 -18 -32 -22 -32 -5 0 -5 -4 -2 -10 3 -5 2 -10 -4 -10 -6 0 -8 -6 -5 -14 3
-7 -2 -16 -11 -20 -9 -3 -14 -10 -10 -15 3 -5 1 -12 -5 -16 -6 -4 -8 -10 -5
-15 3 -4 -2 -10 -10 -14 -8 -3 -15 -10 -15 -16 0 -6 -14 -31 -30 -56 -17 -24
-28 -44 -25 -44 3 0 -6 -11 -20 -24 -15 -14 -24 -29 -21 -35 4 -5 -3 -12 -14
-16 -11 -4 -18 -10 -16 -14 7 -10 -23 -53 -33 -47 -4 3 -13 -9 -20 -25 -15
-35 -29 -31 -25 8 1 15 2 41 3 56 1 16 5 26 9 23 4 -2 8 4 8 14 0 14 -3 16
-13 8 -11 -8 -12 -7 -7 8 4 10 11 25 17 32 5 7 6 12 0 12 -5 0 -9 9 -10 20 -1
13 2 18 9 14 6 -4 8 -3 4 4 -12 20 -14 72 -2 72 8 0 8 2 0 8 -6 4 -11 34 -12
67 -2 58 -21 165 -32 175 -3 3 -7 12 -9 20 -2 8 -4 20 -6 25 -1 6 -7 21 -12
35 -6 14 -9 28 -6 32 2 5 -1 8 -7 8 -6 0 -8 5 -5 10 3 6 1 10 -6 10 -7 0 -9 3
-6 7 4 3 2 12 -3 18 -6 7 6 4 27 -6 58 -28 124 -38 178 -26 11 2 26 0 33 -6
10 -8 12 -7 10 4 -2 8 7 15 20 17 12 2 22 8 22 13 0 6 4 8 9 5 5 -3 14 1 21 9
7 8 16 13 20 10 4 -3 11 2 14 11 4 9 9 14 12 11 3 -3 27 17 54 43 27 26 51 45
54 42 3 -3 6 2 6 10 0 9 7 19 16 22 9 4 14 9 10 13 -3 3 3 12 14 20 11 8 20
22 20 32 0 10 6 24 14 30 8 7 13 20 11 29 -1 9 3 20 9 24 6 4 11 53 12 130 l1
123 39 0 c21 0 48 -4 59 -9 11 -5 36 -10 57 -11 21 -2 45 -8 53 -15 8 -6 19
-9 25 -5 5 3 10 1 10 -5 0 -6 4 -9 9 -5 5 3 12 1 16 -5 3 -5 15 -10 26 -10 10
0 19 -4 19 -10 0 -5 9 -10 19 -10 11 0 23 -5 26 -10 4 -6 11 -7 17 -4 8 5 9 1
5 -10 -4 -9 -3 -14 2 -11 12 7 61 -15 61 -28 0 -5 6 -7 14 -4 8 3 16 2 18 -2
2 -4 26 -24 55 -43 29 -20 49 -38 46 -42 -4 -3 -1 -6 6 -6 7 0 35 -24 63 -52
29 -29 58 -52 65 -50 7 2 13 -2 13 -8 0 -6 25 -10 60 -10 33 0 60 4 60 10 0 5
3 9 8 9 19 -3 33 2 28 10 -3 5 1 11 9 15 11 4 15 22 15 70 0 35 -4 66 -10 68
-5 2 -10 18 -12 36 -1 17 -6 32 -10 32 -5 0 -4 10 3 21 6 12 7 19 2 16 -4 -3
-13 6 -20 19 -7 15 -7 22 -1 18 6 -4 8 -1 6 7 -3 8 -10 13 -15 12 -6 -1 -9 9
-7 23 1 13 -2 22 -7 18 -5 -3 -9 6 -9 20 0 14 -4 26 -9 26 -9 0 -24 45 -19 56
2 3 -5 10 -15 15 -9 6 -17 17 -17 25 0 16 -38 76 -52 82 -5 2 -6 8 -3 13 6 9
-2 21 -40 61 -11 11 -13 17 -5 13 8 -5 3 4 -12 19 -15 16 -30 37 -33 47 -4 10
-13 19 -21 19 -8 0 -12 5 -9 10 3 6 -1 13 -9 16 -9 3 -16 10 -16 15 0 9 -25
38 -90 108 -19 20 -44 49 -55 64 -11 15 -26 27 -34 27 -8 0 -12 3 -8 6 8 8
-18 34 -33 34 -6 0 -8 5 -5 10 3 6 1 10 -5 10 -6 0 -8 5 -4 12 4 6 3 8 -3 5
-6 -4 -22 4 -34 18 -13 13 -30 25 -37 25 -7 0 -10 5 -7 10 3 6 -1 10 -10 10
-9 0 -13 5 -10 10 3 6 -3 10 -14 10 -12 0 -21 5 -21 10 0 6 -7 10 -17 10 -15
0 -15 -1 0 -18 10 -10 17 -24 17 -30 0 -7 5 -12 11 -12 5 0 8 -4 5 -8 -3 -5 4
-15 15 -22 10 -8 19 -18 19 -23 0 -4 9 -17 20 -29 11 -12 20 -28 20 -35 0 -8
5 -11 10 -8 6 3 10 -1 10 -9 0 -9 5 -16 10 -16 6 0 10 -7 10 -15 0 -8 5 -15
10 -15 6 0 10 -10 10 -22 0 -16 3 -19 8 -10 6 8 13 1 22 -23 7 -19 17 -32 22
-29 4 3 8 -1 8 -9 0 -7 9 -23 20 -35 11 -12 20 -28 20 -37 0 -9 5 -13 10 -10
6 3 10 0 10 -8 0 -8 9 -26 20 -40 11 -14 20 -33 20 -43 0 -9 3 -14 6 -11 4 4
19 -19 35 -50 15 -30 32 -60 38 -66 5 -5 7 -16 4 -25 -5 -10 -2 -13 6 -8 8 5
11 3 10 -5 -2 -8 7 -33 18 -57 12 -23 16 -39 10 -35 -7 3 -3 -4 8 -16 11 -13
19 -25 18 -27 -2 -2 -3 -5 -2 -6 0 -2 2 -11 4 -22 3 -18 3 -18 -15 0 -33 33
-48 43 -54 37 -3 -4 -6 2 -6 11 0 12 -5 16 -15 12 -8 -3 -15 -2 -15 3 0 5 -9
11 -21 14 -12 3 -18 10 -14 17 3 6 3 10 -2 8 -12 -3 -93 36 -93 44 0 5 -7 8
-16 8 -9 0 -12 5 -8 13 4 6 4 9 -1 5 -4 -4 -23 -1 -42 7 -19 8 -39 12 -44 9
-5 -3 -8 -2 -7 3 2 4 0 8 -3 8 -4 0 -17 9 -30 20 -12 11 -19 14 -15 8 4 -7 3
-13 -3 -13 -5 0 -11 5 -13 10 -2 6 -13 12 -26 13 -12 0 -22 4 -22 7 0 4 -33
10 -82 13 -10 1 -18 4 -18 8 0 3 -15 5 -32 4 -18 -1 -42 1 -52 5 -18 6 -16 10
17 32 20 14 34 28 30 31 -6 6 11 11 30 8 4 0 6 2 5 6 -5 18 14 53 24 47 7 -5
9 -1 5 9 -3 10 -2 17 4 17 6 0 8 4 5 9 -7 11 4 42 13 37 9 -6 8 127 -2 141 -4
6 -3 15 3 18 7 4 7 11 2 18 -5 7 -8 20 -7 30 2 9 0 17 -4 17 -4 0 -8 12 -9 27
-1 15 -6 31 -11 36 -5 5 -7 16 -4 23 3 8 0 14 -7 14 -6 0 -8 4 -5 10 3 6 1 10
-5 10 -6 0 -8 4 -5 10 3 6 1 10 -5 10 -6 0 -8 5 -5 10 3 6 1 10 -4 10 -6 0
-11 6 -11 13 0 6 -18 29 -39 49 -22 20 -36 39 -33 43 3 3 -4 8 -16 12 -12 3
-22 9 -22 13 0 6 -97 64 -110 65 -3 0 -14 6 -25 13 -14 9 -16 15 -7 18 6 3 12
12 12 19 0 8 12 23 28 35 15 12 26 24 25 26 -2 2 15 22 37 44 22 22 40 38 40
35 0 -3 15 10 32 30 18 19 41 35 51 35 10 0 15 5 12 10 -3 6 1 10 9 10 9 0 16
5 16 11 0 5 13 15 30 20 17 6 27 16 23 22 -4 6 0 8 10 4 10 -3 17 -2 17 4 0 6
5 7 10 4 6 -3 10 -1 10 5 0 6 9 10 19 8 10 -2 27 4 37 14 11 9 28 18 39 20 11
1 26 9 33 16 8 7 18 10 23 6 6 -3 17 0 25 7 8 6 28 12 44 11 17 0 30 3 30 8 0
8 39 23 54 21 5 -1 6 5 2 14 -3 9 -2 14 3 11 9 -6 42 37 45 60 1 7 5 16 8 20
4 3 4 13 1 22 -5 11 -3 13 6 7 8 -4 7 2 -3 17 -9 14 -13 28 -9 32 5 4 1 6 -7
4 -8 -1 -14 2 -13 8 1 7 -18 18 -42 25 -25 7 -45 16 -45 20 0 3 -6 6 -12 7
-21 1 -42 7 -53 13 -5 4 -23 6 -39 5 -15 -1 -30 4 -33 10 -2 7 -12 11 -21 9
-9 -1 -28 2 -42 7 -14 6 -79 11 -145 12 -67 1 -127 6 -134 11 -9 5 -12 4 -8
-2 4 -7 -15 -10 -54 -9 -33 1 -63 -2 -66 -7 -3 -4 -11 -3 -19 4 -9 7 -14 8
-14 1 0 -6 -8 -11 -17 -11 -45 1 -119 -14 -125 -24 -5 -8 -8 -7 -8 3 0 10 -3
11 -8 4 -4 -6 -15 -10 -24 -8 -10 1 -21 -2 -24 -8 -4 -6 -10 -5 -15 3 -6 10
-9 11 -9 2 0 -7 -11 -13 -24 -13 -14 0 -28 -5 -32 -11 -4 -8 -9 -7 -15 2 -7
11 -9 11 -9 1 0 -7 -3 -11 -8 -9 -4 3 -24 -3 -44 -13 -33 -16 -36 -16 -31 -1
5 13 2 13 -15 -3 -12 -11 -22 -16 -22 -11 0 4 -6 2 -14 -4 -11 -9 -15 -9 -19
1 -4 9 -6 8 -6 -3 -1 -11 -10 -15 -31 -14 -16 1 -27 -2 -24 -7 5 -7 -18 -13
-39 -9 -5 1 -6 -3 -2 -9 3 -5 -3 -10 -14 -10 -12 0 -21 -5 -21 -11 0 -5 -6 -7
-12 -3 -7 4 -10 3 -6 -1 10 -10 78 -15 78 -6 0 4 14 6 30 3 17 -2 37 1 45 8 8
7 15 8 15 3 0 -5 9 -9 19 -9 11 0 18 3 15 7 -2 4 15 7 39 6 23 0 48 3 55 7 7
4 12 2 12 -6 0 -9 3 -9 10 2 9 13 11 13 20 0 6 -10 10 -11 10 -3 0 8 11 11 30
9 17 -2 30 1 30 8 0 7 3 7 8 1 9 -13 35 -18 27 -5 -3 5 -2 10 4 10 5 0 13 -5
16 -10 5 -8 11 -8 20 0 9 8 15 8 20 0 4 -6 12 -7 23 -1 9 5 26 5 39 0 13 -5
25 -4 28 1 4 6 11 10 16 10 6 0 7 -5 3 -11 -4 -7 1 -7 16 1 18 10 24 9 31 -1
6 -9 9 -10 9 -2 0 12 24 12 36 0 4 -4 13 -2 20 4 8 7 14 7 19 -1 5 -8 10 -8
20 0 9 8 14 6 19 -6 5 -13 9 -14 21 -4 8 7 15 9 15 5 0 -4 8 -1 17 6 11 10 14
10 9 2 -5 -10 2 -13 26 -13 19 0 40 -6 47 -12 8 -7 11 -8 8 -2 -3 6 0 11 8 11
8 0 11 -5 8 -10 -4 -6 0 -8 10 -4 11 4 14 2 10 -9 -3 -8 -8 -12 -11 -9 -3 3
-14 -3 -25 -12 -11 -10 -17 -12 -13 -5 7 11 4 11 -13 0 -12 -7 -21 -16 -21
-21 0 -4 -4 -6 -9 -2 -5 3 -15 0 -23 -7 -7 -7 -22 -14 -33 -16 -11 -2 -26 -11
-32 -20 -7 -9 -13 -12 -13 -8 0 4 -13 -2 -30 -14 -16 -12 -30 -18 -30 -13 0 4
-5 0 -11 -9 -5 -10 -25 -25 -44 -34 -19 -9 -35 -20 -35 -25 0 -5 -7 -9 -15 -9
-8 0 -14 -5 -12 -12 1 -7 -5 -13 -13 -13 -8 0 -14 -6 -13 -13 2 -7 -1 -11 -5
-9 -4 1 -23 -14 -42 -33 -19 -19 -39 -34 -45 -32 -5 2 -7 1 -3 -3 6 -7 -9 -29
-48 -71 -12 -13 -19 -26 -15 -30 3 -4 0 -4 -7 0 -7 4 -10 12 -7 17 4 5 1 9 -6
9 -8 0 -8 4 1 15 9 10 9 15 1 15 -6 0 -11 9 -11 20 0 60 -111 192 -163 195 -4
0 -11 6 -16 13 -5 8 -12 14 -17 14 -5 0 -20 4 -32 9 -13 5 -27 7 -32 4 -4 -3
-10 1 -13 8 -3 8 -19 13 -40 12 -20 0 -33 3 -31 7 3 4 -3 8 -13 9 -87 4 -126
3 -130 -4 -2 -4 -13 -2 -25 4 -15 8 -19 8 -14 0 4 -6 4 -11 -1 -12 -33 -3
-160 -47 -138 -49 13 0 -33 -31 -51 -34 -9 -1 -19 -8 -24 -15 -6 -10 -13 -8
-29 8 -12 12 -19 26 -16 31 4 6 1 10 -4 10 -6 0 -11 8 -11 18 0 10 -6 24 -12
31 -11 11 -10 12 2 6 12 -6 13 -5 3 6 -7 7 -13 23 -13 36 0 13 -4 23 -9 23 -5
0 -8 18 -7 39 1 24 -2 37 -8 34 -5 -4 -7 1 -3 10 4 10 1 17 -6 17 -8 0 -6 4 3
10 8 5 10 10 5 10 -6 0 -10 19 -10 43 1 23 -3 48 -8 55 -6 8 -5 12 3 12 10 0
10 3 0 15 -7 8 -9 15 -4 15 5 0 9 30 9 66 -1 36 2 67 6 69 3 3 5 16 4 30 -2
14 0 25 4 25 4 0 7 10 8 23 1 12 4 33 8 47 4 14 7 31 7 38 1 6 6 12 12 12 6 0
4 5 -4 10 -8 5 -10 10 -4 10 6 0 11 7 11 15 0 8 -4 15 -9 15 -5 0 -7 4 -4 8 3
5 -1 20 -9 35 -7 14 -10 29 -7 32 4 4 0 5 -8 3 -8 -1 -14 3 -15 10 0 6 -4 12
-9 11 -5 0 -13 6 -17 14 -11 20 -89 18 -110 -2z m494 -934 c-3 -6 -1 -7 5 -3
20 12 52 15 52 5 0 -5 5 -9 11 -9 5 0 7 6 3 13 -5 8 -2 8 9 -2 9 -7 17 -10 17
-6 0 4 6 2 13 -4 8 -6 17 -8 20 -4 4 3 7 0 7 -7 0 -7 3 -11 6 -7 4 3 27 -5 53
-18 57 -29 109 -65 97 -65 -6 0 -1 -6 9 -14 11 -8 16 -19 12 -30 -4 -9 -1 -16
5 -16 7 0 7 -4 -1 -14 -7 -8 -8 -16 -3 -18 5 -1 0 -12 -11 -23 -11 -11 -17
-14 -13 -5 4 8 1 7 -8 -3 -8 -10 -30 -22 -50 -27 -38 -8 -148 -2 -156 10 -3 4
-13 8 -22 8 -42 4 -48 6 -48 15 0 5 -7 7 -15 3 -8 -3 -15 -2 -15 2 0 5 -21 18
-47 29 -27 12 -58 33 -70 47 -13 14 -27 26 -32 26 -5 0 -11 11 -13 25 -3 14
-2 25 2 25 3 0 17 10 30 23 14 12 27 21 30 21 3 -1 15 2 28 7 12 5 28 8 35 6
7 -1 11 3 10 8 -1 6 12 10 28 11 17 1 26 -3 22 -9z m-709 -269 c-5 -7 -3 -8 7
-2 21 13 62 17 54 4 -3 -6 3 -10 14 -10 12 0 21 -7 21 -16 0 -8 5 -12 10 -9
13 8 15 -18 8 -82 -1 -7 -5 -13 -10 -13 -5 0 -7 -4 -4 -8 3 -5 -3 -18 -14 -29
-10 -12 -16 -24 -13 -27 4 -3 1 -6 -5 -6 -7 0 -11 -3 -10 -7 4 -11 -89 -103
-96 -96 -3 4 -6 -2 -6 -12 0 -10 -3 -16 -6 -12 -4 3 -21 -5 -39 -18 -17 -14
-37 -25 -43 -25 -7 0 -12 -4 -12 -10 0 -5 -7 -7 -15 -4 -8 4 -15 1 -15 -7 0
-7 -3 -10 -6 -6 -3 3 -19 1 -35 -5 -41 -14 -54 4 -53 73 1 31 4 61 8 68 4 6 5
15 2 20 -3 5 1 14 9 21 8 7 12 16 9 21 -3 5 0 9 5 9 6 0 11 6 11 14 0 8 10 22
22 30 12 9 19 16 14 16 -5 0 4 12 20 27 16 15 33 26 37 25 4 -1 10 5 13 13 4
8 12 15 20 15 8 0 14 5 14 10 0 6 7 10 15 10 8 0 15 5 15 11 0 6 6 9 12 7 7
-3 19 1 26 9 16 16 26 17 16 1z m362 -37 c-3 -5 4 -11 15 -14 13 -4 18 -10 13
-18 -4 -7 -3 -10 3 -6 6 4 16 0 23 -8 7 -8 16 -13 20 -10 4 3 11 -2 14 -11 3
-8 10 -12 16 -9 5 3 10 1 10 -5 0 -6 4 -9 9 -6 5 3 14 -1 21 -10 7 -8 19 -13
27 -10 7 3 13 1 13 -4 0 -6 4 -10 9 -10 5 0 22 -5 38 -12 35 -14 39 -15 64
-17 11 0 17 -5 14 -11 -4 -7 3 -7 20 0 18 7 24 7 20 0 -4 -7 6 -9 29 -7 19 2
33 0 30 -4 -3 -5 0 -9 5 -9 6 0 11 5 11 12 0 9 3 9 11 1 6 -6 18 -9 25 -6 8 3
14 -1 14 -8 0 -11 2 -11 10 1 7 11 12 12 21 3 11 -11 42 -7 35 6 -2 3 15 5 38
5 41 -2 166 47 174 68 2 4 10 8 17 8 10 0 12 -11 8 -42 -3 -24 -5 -51 -5 -61
1 -10 -4 -15 -10 -11 -7 4 -8 2 -4 -5 13 -21 15 -82 3 -74 -8 4 -8 2 0 -8 7
-9 15 -43 17 -77 3 -34 8 -68 13 -75 8 -12 13 -32 15 -54 1 -7 5 -13 10 -13 4
0 7 -3 7 -7 -4 -25 2 -43 13 -37 7 4 8 3 4 -5 -9 -14 14 -67 44 -98 11 -13 17
-23 13 -23 -4 -1 3 -10 16 -20 13 -11 19 -20 15 -20 -5 0 -1 -5 9 -11 9 -6 15
-14 12 -20 -3 -5 1 -6 9 -3 11 4 16 0 16 -10 0 -9 7 -16 15 -16 8 0 15 -4 15
-9 0 -10 39 -27 53 -23 4 1 7 -5 7 -14 0 -8 5 -12 10 -9 6 3 10 2 10 -3 0 -14
-26 -33 -33 -25 -4 3 -7 1 -7 -6 0 -8 -7 -10 -20 -6 -15 5 -18 3 -14 -9 4 -11
0 -14 -15 -11 -12 2 -21 0 -21 -5 0 -7 -32 -23 -51 -25 -3 0 -13 -8 -23 -18
-10 -9 -22 -14 -28 -11 -7 4 -8 2 -4 -4 4 -6 -6 -19 -21 -29 -30 -19 -97 -83
-88 -83 3 0 -6 -12 -22 -27 -15 -16 -31 -27 -35 -26 -4 2 -7 0 -6 -5 4 -13
-38 -93 -45 -86 -4 4 -7 -2 -7 -14 0 -11 -4 -24 -10 -27 -5 -3 -10 -17 -10
-31 0 -14 -4 -23 -8 -20 -4 2 -9 -5 -9 -17 -3 -48 -8 -67 -18 -67 -5 0 -4 -4
4 -9 9 -6 10 -11 2 -15 -6 -4 -8 -12 -4 -19 15 -24 9 -57 -10 -57 -11 0 -15 4
-11 12 5 7 2 10 -7 6 -16 -5 -51 27 -41 38 4 4 -1 4 -10 1 -10 -3 -21 -1 -25
6 -5 7 -20 18 -35 26 -15 8 -26 17 -24 20 2 3 -7 7 -21 8 -14 0 -29 7 -34 15
-5 7 -9 10 -9 6 0 -4 -12 -3 -27 3 -31 12 -62 20 -80 21 -7 1 -13 4 -13 8 0 4
-12 6 -27 4 -15 -1 -33 2 -40 8 -7 6 -13 6 -13 1 0 -5 -9 -9 -19 -9 -11 0 -19
3 -19 6 2 18 -4 23 -12 10 -7 -12 -13 -13 -28 -4 -12 8 -24 9 -34 3 -11 -6
-19 -5 -23 1 -4 7 -13 7 -26 0 -11 -6 -24 -8 -29 -5 -6 3 -10 2 -10 -3 0 -5
-14 -9 -30 -10 -17 0 -45 -11 -63 -24 -17 -13 -34 -22 -37 -21 -3 0 -4 -3 -2
-9 1 -5 -2 -7 -7 -4 -5 4 -17 -1 -25 -10 -18 -17 -17 -18 -19 48 -2 39 0 44
12 35 12 -10 12 -9 3 9 -8 16 -8 24 0 32 8 8 8 12 2 12 -6 0 -11 7 -11 15 0 8
5 15 11 15 6 0 4 5 -4 10 -8 5 -10 10 -5 10 6 0 3 5 -5 10 -12 8 -12 10 5 10
12 0 16 3 9 8 -16 11 -25 42 -12 42 7 0 7 4 1 13 -5 6 -9 19 -8 27 0 8 -3 17
-6 20 -4 3 -9 23 -11 45 -3 22 -12 54 -20 70 -9 17 -18 39 -20 50 -1 11 -10
25 -18 32 -8 6 -12 14 -8 18 3 4 -1 15 -10 25 -10 11 -27 31 -40 45 -12 14
-20 25 -18 25 3 0 -9 15 -27 34 -18 18 -35 32 -38 30 -3 -2 -16 6 -27 17 -12
11 -22 16 -22 12 0 -4 -5 -1 -10 7 -5 8 -14 15 -20 15 -5 0 -9 5 -7 10 1 6 8
9 14 9 7 -1 10 2 7 7 -3 5 8 12 25 15 17 4 31 11 31 16 0 5 5 6 10 3 6 -3 13
0 16 9 3 8 12 12 20 9 7 -3 17 2 20 11 3 9 10 14 14 11 5 -3 13 2 18 11 5 9
13 17 18 17 5 1 8 6 6 10 -1 5 1 6 6 3 11 -7 52 30 52 47 0 7 4 6 10 -3 8 -13
10 -12 10 3 0 15 11 22 33 18 4 0 6 2 6 6 -3 21 2 33 16 33 8 0 14 3 13 8 -2
4 5 16 15 27 9 11 18 25 18 30 1 6 10 16 21 23 10 7 16 17 13 22 -3 4 2 13 10
20 8 7 15 19 15 26 0 8 5 14 12 14 6 0 9 3 6 6 -4 3 0 20 7 39 8 18 11 35 8
39 -4 3 -1 6 7 6 10 0 10 3 0 15 -7 8 -8 15 -3 15 13 0 12 33 -1 42 -8 5 -7 8
2 8 8 0 10 9 6 28 -4 21 -3 24 5 12 6 -8 11 -10 11 -4 0 5 -5 15 -12 22 -9 9
-6 12 16 12 15 0 25 -4 22 -9z m1069 -151 c-6 11 -3 10 12 -2 11 -10 25 -18
31 -18 7 0 12 -5 12 -11 0 -5 4 -8 8 -5 5 3 14 -4 22 -14 8 -10 17 -17 22 -14
4 3 8 0 8 -5 0 -6 8 -20 18 -30 34 -38 41 -49 35 -55 -4 -3 0 -6 8 -6 11 0 11
-2 -1 -10 -13 -8 -13 -10 1 -10 11 0 17 -9 17 -26 0 -15 3 -29 8 -33 12 -8 13
-191 2 -191 -5 0 -6 -4 -3 -10 3 -5 1 -10 -5 -10 -6 0 -15 -11 -21 -24 -17
-36 -77 -30 -126 12 -21 18 -32 30 -25 26 11 -5 11 -2 0 15 -7 12 -16 21 -20
21 -5 0 -8 11 -8 24 0 14 -5 28 -11 32 -6 3 -9 14 -6 24 3 11 -1 21 -8 23 -6
3 -11 19 -10 36 1 18 -2 34 -8 38 -5 3 -3 9 4 14 9 6 10 9 2 9 -12 0 -12 17 0
37 4 6 2 15 -4 19 -8 4 -9 3 -5 -4 4 -7 2 -12 -3 -12 -12 0 -14 13 -4 23 3 4
8 17 9 30 5 39 12 71 19 95 6 19 10 20 23 10 13 -11 14 -11 7 2z m-1675 -684
c0 4 9 -3 20 -16 11 -13 20 -20 20 -17 0 4 8 -1 18 -10 11 -10 17 -21 15 -24
-1 -4 4 -10 13 -13 8 -3 13 -10 9 -16 -3 -5 1 -22 9 -38 8 -16 12 -32 9 -36
-4 -3 -2 -6 4 -6 10 0 13 -13 15 -67 1 -18 5 -33 9 -33 4 0 10 -7 13 -16 3 -8
2 -13 -3 -10 -5 3 -11 -3 -14 -14 -3 -12 -1 -18 5 -14 6 4 8 -7 5 -29 -3 -22
0 -38 7 -41 6 -2 4 -5 -5 -5 -12 -1 -16 -10 -14 -35 1 -19 -2 -33 -7 -30 -4 3
-8 -2 -8 -10 0 -18 -25 -22 -35 -6 -4 6 -11 8 -16 5 -5 -4 -9 -1 -9 5 0 6 -4
8 -10 5 -5 -3 -10 -1 -10 4 0 6 -5 11 -10 11 -6 0 -31 20 -56 45 -24 25 -41
45 -38 45 4 0 -2 10 -13 23 -11 12 -19 30 -18 40 2 9 -1 17 -6 17 -6 0 -7 5
-4 10 4 6 1 17 -5 25 -10 12 -10 15 0 15 9 0 10 3 1 13 -6 8 -9 23 -6 35 2 12
-1 22 -7 22 -7 0 -6 6 2 15 8 10 9 15 1 15 -7 0 -8 8 -1 25 5 14 7 32 3 42 -4
11 -3 14 5 9 7 -4 12 -2 12 3 0 6 1 14 1 19 2 10 42 37 52 34 4 -1 7 3 7 8 0
7 6 7 20 0 11 -6 20 -8 20 -4z m1786 -303 c-3 -7 -1 -13 5 -13 6 0 5 -8 -2
-21 -6 -12 -7 -19 -1 -15 6 3 9 -5 8 -19 0 -14 -5 -25 -9 -25 -5 0 -5 -9 -2
-20 4 -12 2 -20 -5 -20 -7 0 -10 -7 -6 -15 3 -8 -1 -21 -9 -29 -8 -7 -11 -16
-8 -20 3 -3 -2 -9 -11 -12 -14 -5 -15 -9 -4 -15 10 -7 9 -9 -4 -9 -10 0 -18
-4 -18 -10 0 -5 -9 -19 -20 -30 -11 -11 -24 -20 -30 -20 -5 0 -10 -7 -10 -15
0 -8 -3 -14 -7 -13 -16 3 -43 -15 -36 -25 3 -6 1 -7 -6 -3 -6 4 -18 0 -27 -8
-8 -9 -27 -16 -40 -16 -14 0 -23 -4 -20 -8 2 -4 -4 -8 -14 -9 -11 -1 -22 2
-25 7 -3 5 -12 7 -20 3 -8 -3 -15 1 -15 8 0 7 -3 10 -6 6 -4 -3 -13 0 -20 8
-17 17 -18 29 -1 19 6 -4 5 1 -4 11 -14 14 -15 24 -7 53 6 20 16 45 24 57 8
12 11 25 7 28 -3 4 2 7 11 7 12 0 16 5 13 14 -4 10 -1 13 9 9 10 -4 12 0 7 13
-4 11 -3 15 5 10 6 -4 17 5 26 21 9 16 16 21 16 13 0 -9 6 -5 15 10 7 14 18
25 25 25 6 0 14 5 18 10 16 23 142 87 142 72 0 -6 8 -4 17 6 13 12 20 14 30 5
8 -6 12 -17 9 -25z m-1156 -173 c0 -5 -5 -10 -11 -10 -5 0 -7 5 -4 10 3 6 8
10 11 10 2 0 4 -4 4 -10z m112 -233 c6 -9 8 -8 8 3 0 13 1 13 10 0 5 -8 10
-11 10 -6 0 5 6 3 13 -3 8 -6 17 -8 20 -4 4 3 7 1 7 -5 0 -7 3 -11 8 -11 21 4
40 -3 58 -19 10 -10 22 -18 26 -18 3 1 18 -9 32 -21 15 -13 28 -23 31 -23 11
0 45 -41 45 -55 0 -8 -18 -23 -40 -32 -22 -10 -40 -21 -40 -26 0 -4 -4 -5 -10
-2 -5 3 -10 2 -10 -4 0 -5 -11 -8 -25 -6 -14 1 -25 -2 -25 -7 0 -6 -7 -8 -15
-4 -8 3 -15 1 -15 -4 0 -6 -9 -6 -25 0 -16 6 -26 6 -31 -1 -4 -7 -10 -7 -18 0
-7 6 -16 8 -19 4 -4 -3 -13 0 -22 7 -8 7 -15 9 -15 5 0 -4 -7 -2 -15 5 -8 7
-15 9 -15 5 0 -5 -10 0 -22 11 -13 11 -18 13 -13 4 5 -8 -4 -5 -19 8 -16 12
-31 20 -35 17 -4 -2 -15 7 -25 20 -10 14 -22 23 -26 20 -10 -6 -32 44 -25 56
4 5 1 9 -5 9 -8 0 -8 6 0 20 6 11 9 24 6 28 -5 9 47 38 79 45 37 8 149 -4 157
-16z"/>
</g>
</svg>
